<?xml version="1.0" encoding="utf-8"?>
<!-- Generator: Adobe Illustrator 23.0.0, SVG Export Plug-In . SVG Version: 6.00 Build 0)  -->
<svg version="1.1" id="Layer_1" xmlns="http://www.w3.org/2000/svg" xmlns:xlink="http://www.w3.org/1999/xlink" x="0px" y="0px"
	 width="114.4px" height="27.8px" viewBox="0 0 114.4 27.8" style="enable-background:new 0 0 114.4 27.8;" xml:space="preserve">
<style type="text/css">
	.st0{fill:#FFFFFF;}
	.st1{fill-rule:evenodd;clip-rule:evenodd;fill:#B11F24;}
</style>
<g id="Layer_5">
	<g>
		<g>
			<path class="st0" d="M7.5,12.9v1.9H3.2V23H1.1V4.1h7.5V6H3.2v6.9H7.5z"/>
			<path class="st0" d="M19.1,4.1V23H17V4.1H19.1z"/>
			<path class="st0" d="M28,22.9V4.1h2.1v17h5.4V23H28V22.9z"/>
		</g>
	</g>
	<g id="Layer_3">
		<g>
			<path class="st0" d="M65.2,22.9h-1.9V4.1H66l4.4,13.7V4.1h1.9V23H70L65.2,7.7V22.9z"/>
			<path class="st0" d="M89.4,8.6v1.7h-2V8.5c0-1.7-0.7-2.7-2.2-2.7S83,6.8,83,8.5v10c0,1.7,0.7,2.7,2.2,2.7s2.2-1,2.2-2.7V16h2v2.3
				c0,2.9-1.3,4.8-4.3,4.8c-2.9,0-4.2-1.9-4.2-4.8V8.6c0-2.9,1.3-4.8,4.2-4.8C88.1,3.9,89.4,5.8,89.4,8.6z"/>
			<path class="st0" d="M101.2,16.2l-4-12.1h2.2l2.9,9.3l3-9.3h2l-4,12.1V23h-2.1V16.2z"/>
		</g>
	</g>
	<g id="Layer_4">
		<g>
			<g>
				<polygon class="st1" points="57.4,23 51,4.1 47.8,4.1 41.3,23 44,23 49.5,6.7 55.1,23 				"/>
			</g>
		</g>
	</g>
</g>
</svg>
